<mxfile host="65bd71144e">
    <diagram id="z9l-pfXdvjR1klcjdMM3" name="Page-1">
        <mxGraphModel dx="1072" dy="385" grid="1" gridSize="10" guides="1" tooltips="1" connect="1" arrows="1" fold="1" page="1" pageScale="1" pageWidth="850" pageHeight="1100" math="0" shadow="0">
            <root>
                <mxCell id="0"/>
                <mxCell id="1" parent="0"/>
                <mxCell id="2" value="" style="shape=image;verticalLabelPosition=bottom;labelBackgroundColor=default;verticalAlign=top;aspect=fixed;imageAspect=0;image=data:image/png,iVBORw0KGgoAAAANSUhEUgAAAoAAAAD7CAYAAAD6tyUIAAAAAXNSR0IArs4c6QAAAARnQU1BAACxjwv8YQUAAAAJcEhZcwAADsMAAA7DAcdvqGQAAFm8SURBVHhe7d13XFPX+wfwTxYrDBUFUQsiKk4q7l214mzdo2rrrNUusc62WnddWK2laK1111lt1fqlVKmjalVwg4AiSwUEZEMGucn5/VFyf3AFBBMgNs/79corN89zcsNIbp577rnnihhjDIQQQgghxGyIhQFCCCGEEPLfRgUgIYQQQoiZoQKQEEIIIcTMUAFICCGEEGJmqAAkhBBCCDEzVAASQgghhJgZKgAJIYQQQswMFYCEEEIIIWaGCkBCCCGEEDNDBSAhhBBCiJmhApAQQgghxMxQAUgIIYQQYmaoACSEEEIIMTNUABJCCCGEmBkqAAkhhBBCzAwVgIQQQgghZoYKQEIIIYQQM0MFICGEEEKImaECkBBCCCHEzFABSAghhBBiZqgAJIQQQggxM1QAEkLMzv79+9G2bVucPXtWmCKEELNABSAhJkir1SIzMxNarVaYIgZijOHatWtIT09HUFCQMF1hWq0WN27cQGpqqjBFCCEmiwpAQkwMx3GYPXs22rRpg7feegsbN27E7du3kZ+fL2xapRQKBQ4cOIC0tDRh6pUSExODCxcuAADc3d2F6Qr73//+hxEjRmDt2rXCFCGEmCwqAAkxMQUFBUhPTwcAREREYPPmzRg6dChatGiB3r1745dffoFCoRA+rdLFxMRgxYoVOH78uDD1Srl8+TKysrIwc+ZMTJ8+XZiuEMYY/v77b2GYEEJMHhWAhJiY/Px86HQ6TJs2Dfv27cNff/0Ff39/vPXWW4iPj8e8efPQsmVLrFmzBiqVSvj0SpeVlSUMAYU/97x58zBq1CgkJiYK0yYhPT0dP//8M5ycnDBu3DhIpVJhkwpJT0/HzZs3AQAuLi7CdKXjOA5HjhxBQEBAtewUEEJeXVQAEmJi/Pz8cOXKFXh6eqJnz55o3LgxhgwZgoCAANy7dw8bNmxA3bp18cMPP2Dq1KlVfkg2OTlZGAIK42fOnEFoaCjWrFljkgXJH3/8gQcPHuCtt96Cm5ubMF1hQUFBiImJAQDY2toK05UuIyMDmzZtwvr16+Hn5wfGmLAJIYSUiApAQkyMtbU1ACA6OlqYgo2NDUaPHo1z585h1KhRuHz5Mn7++WdhM6PiOA7Pnj1DSkoKNBoNfvvtN7Rv3x5ubm787csvv4SHhwe2bt0KDw8PnD17FgkJCcJVVaukpCRs374dTk5OmDRpEkQikbBJhcTHx2Pz5s3CcJWqVasW+vbtCwA4evQoHjx4IGxCCCElogKQEBNTt25dAICjoyOSk5Px/fffl9rrhjIOyb4srVbLn3CSnp6OIUOGoF27dpg2bRo4joNOp0NaWhocHR0xdOhQrF+/Hh9//DFEIhG6du2Ks2fPIiIiAs2bNxeuutowxnDgwAHEx8dj/PjxaNiwobBJhXAch++//x6ZmZmYOnWqMF1lpFIpVqxYgSNHjuDNN998rgdQq9Xi7NmzmDhxIjw8PODm5gZvb28qFAkhVAASYso2bdoEPz8/dO3aFe+//z6mT5+OLl26oGXLljh69Ci8vLwwc+ZMvr1Wq8WJEyfQsWNHuLm5wd3dHSNHjsTZs2efm1ImMjISe/fufe5Q7dGjR9GhQwfcunUL2dnZePr0KQBALpcDAHx8fHD//n3cvHkT3333HcaOHYv69esXW0dRKpUKt27d4l/nyZMnmDBhQpljBfPy8nD48GEsXboUly5deu5nr6jo6Gjs378fdevWxahRo4TpCvvjjz9w9OhRjB07Fp06dRKmeVevXkWfPn3g5uaGIUOGlPh/QOEZ1suXL4e7uzs8PT2xatWqck8rIxKJ0KlTJ3z77bdo1qwZH4+NjcXw4cMxZcoUXLhwATqdDnXr1oWLi4vBYx8JIa8+KgAJMWE+Pj4Qi8XQ6XQ4c+YMTp8+jaSkJADAF198gV9++YU/+SA5ORnvvfceZs2ahZSUFDg6OsLJyQk3b97ElClT8N577/HjBTmOw+bNm7F06VLcvXu32GtGREQgPz8f6enpaNSoEf766y/cvn0bQUFBqFOnDuzt7WFlZVXsOXparRZ37twpVlTevn0bI0aMwP79+5Geno4pU6bg0qVLCA0NxZYtW8BxXLF1XL16FYMGDcKCBQuwe/duTJgwAUFBQfjnn39w5MiR53q5XoQxhoMHDyIjIwPvvPMOXnvtNWGTCrl9+za+/PJLNGnSBHPmzOGLKeGUMmfOnMG4ceP4MYJ37tzBlClT8MknnyA3N5dvl5+fjw8++AA7d+6ETqeDSqXC9u3b0bNnz3JPVK1QKPDs2TP+sVqtxooVK3Dnzh00adIEQUFBiI2NxbVr1xAYGIhGjRoVez4hxPxQAUiICevbty9+/PFHflxghw4dcPXqVcTExGDmzJnFCjE/Pz9cvnwZ9vb22Lt3L27cuIFr164hLCwMn332Ga5cuQJfX1/k5uZCrVbj2bNncHd3R+PGjfl1qFQqxMXF8Y8BoGbNmqhZsyasrKwgk8nw9OnT53oN9SIiIjB27Fj89ttvfEwul8PS0hIqlQp+fn548OABOnXqBGtra5w7d65Y4XLhwgVMnjwZCQkJ6N27N3bs2IE1a9agXr162Lt3L5YtW4aoqCi+fXmEh4fj4MGDRun9S09Px/z584HCv7ejoyOfK9qrplKpsG/fPlhaWmLfvn1ISEjA7du3MXToUAQGBmLt2rV84RsaGopLly7h7bffRmRkJGJjY7Fnzx7IZDL4+vri3r17/HpLs23bNvTr1w+xsbEAAAsLC3Tu3BkAEBcXhwsXLkCtVgueRQgxZ1QAEmLCRCIRfHx8EBgYiBYtWiA0NBRz584t8cxfGxsbAMDXX3+NN954gz/JwdbWFr6+vpg3bx4uX76Mc+fOIT8/H4mJiXB1dYWdnR2/jvPnz79wXjutVltqL5yDgwNsbW2RmZnJx7Kzs/lerUOHDmHBggU4ePAgpk2bhpSUFDx+/BgoLK5WrVoFpVKJcePG4aeffkLfvn0xfvx4uLm54eHDh7CxseEPRZcHx3HYunUrlEolJk+ebFDvH8dx8PPzw8OHD7F+/Xq0adMGHMfxh8i3bduGoKAgcByH1NRUREREoFevXujatStQWEh//fXX6NixI44dO4bIyEigsACUSCSYNGkSbGxsIJFI0KtXL6xevRq5ubnYtWtXqX9vvQ4dOiAjI4Mf2ycSiTB9+nT4+fkBANasWYOuXbviyJEj1TJ1ECHE9FABSIiJKjpWrFGjRjh27BhGjx6Ny5cvY/z48YiPjy/WXqFQwNra+rlDkSgsCPTj9FJSUvi4lZUVJBIJUFiAffPNN3yuPBhj8Pf3x+7du4HC9clkMoSHh/M9XCqVCowxZGdnY9SoUZgxYwYkEgm8vb3BcRyys7OBwjGJ0dHRaNmyJRYuXFisRy0tLQ0pKSlo1aoVnJ2d+fiLBAcHIzAwEE2bNsWYMWOE6XJjjOGnn37CwYMHodPpsHDhQri5ucHDwwOLFi0CANy8eZM/8zkzMxO5ubnQ6XTF1mNnZ4c+ffpAqVQiJSUFjDG+ABYeCu/UqRNcXFzw+PHjUntc9erWrQsHBweEhYXxMYlEgjFjxuDOnTv44osvAADz589Hu3btqBAkhFABSIip0Rc++sN5ejY2Nli3bh2WLl2Khw8fYvjw4cXG79nZ2UGlUj1XGKKwuPrmm2/g5OQEHx8fyOVy1K9fHzdu3MCTJ0/43q3Hjx9jxowZgKBQROGh3Pr16xcrTNPT03HkyBGEhoZCq9Xybe7du8efnaw/pOzk5IRPPvmE//3q168PuVzOT3dTp04d2NnZITIyEn///Tc4joNarcb58+cxffp05OTkYNiwYbC0tORfvyy5ubn44YcfwBjDRx99VOxwbUUwxnDq1CmsW7eOj2k0GnTr1g2+vr6YM2cORCIRhg4dihkzZkAqlSItLQ0qlQp//vknFixYgLy8PP65RZcVCgVSUlLAcRw++ugjXLx4ke/tU6lU0Gg0fFsUPvf8+fPPnSBSq1Yt1KlTBzExMc8Vkra2tpg5cyZCQkLg7+8Pe3t7zJ8/H6NHjy7z7HJCyH8bFYCEmJiSevD0JBIJpk6dii1btiArKwsLFizgD7cOHToUUqkUs2fPxtKlSxEYGIgffvgBY8eOxYABA5CXl4dt27ahYcOGkMvl6N+/P1JTU/Hmm2+ibdu2OHz4MFauXIkhQ4ZALpfj4sWLzxUTEokEsbGxSE1NBcdxOHToEB4/fowuXbpAIpFAJBLBwsICXOF0MUX5+voWm37F2dkZ9erVw507d8BxHJo2bYqPP/4YOp0Os2bNgoeHB5o2bYpJkyYhISEBNWrUQKtWrYqtsyzBwcG4desWOnfujH79+gnT5cIYw9GjRzFr1iw0aNAAx48fR1hYGCIjI3HgwAHMmTMHQ4YMQa1atUocG9mpUyf89ttvaNeuHT7++GNMmTIF33//PWrVqgVXV1e+Xb169eDg4IB3330XgwYNwvz58zF27FikpaWhRYsWsLGxQWZmJsaNG4dJkyZh3rx5xXrw5HI5GjRogIcPHyInJwcoPJmmbdu2+P3338EYg1QqxZAhQ3Dx4kV8/fXXCAsLw+rVq5/7HxNCzAMVgISYGGdnZ8jl8jLn0RswYACWL18OFDlU7O3tDX9/f7i6umL37t348MMPsWbNGkRERGDmzJm4ePEi2rZty69j6tSpWLFiBezt7eHp6YnTp09j9OjR8PT0xJAhQ3Dnzh1kZGTw7eVyOTp37oz09HT07t0bHh4e/BQ1Q4cOBQp7KTt06ABXV1d+rN4777yDVatW8W30atWqhY8//hhJSUnIzc2FSCTCjBkz8OOPP6Jfv36oV68evL29MXbsWFhbW6NZs2blvtxaeno6tmzZAplMhrlz51Zo3GBRwcHBWLBgARo3box9+/bB29sb9vb2xdqkpKQgMzOzxEO106dPx08//QSpVIpTp07h7Nmz6NGjB44dO4amTZvy7VxdXXHgwAEMHjwYEREROHLkCHJycrBixQosWrQIIpEIT5484XtLU1NToVQq+edbWlrCyckJWVlZxXoYMzMz8cknn2DQoEH4/PPP8fnnn2Px4sU4fvw4GGNITU2lk0MIMVeMEPKfo9PpWEZGBlOpVMJUuXAcx7KysphOpysWT0pKYv3792eurq6sV69e7OjRo0ypVBZrw3EcUygUxWKGuHv3LvP09GTr168Xpkq1b98+5urqypYtW/bc71AR+/btY8uWLWO5ubnCFC8vL49NmDCB9e/fn2VkZDDGGDtz5gxzdXVlZ86cYYwxptFoWE5OjuCZ/z53zJgxbMyYMSwvL48xxlhOTg7TaDTCpkypVLL169ez8ePHs5iYGGGa/fjjj6xp06bs9u3bfCw0NJQNGDCAubq6Pnfr0aMHu3LlSrF1EELMh4i96PQyQggpQqvVQqVSvXSvWkWFhYVh9OjR+PbbbzFgwABh+jlJSUkYN24cAODgwYOoV6+esEmlCw4OxrRp07Bjxw7+Um0lyc/P568ksnPnToP+pufPn8ekSZNKfM2cnBxEREQgIyMDHh4ecHFxea4nkxBiXugQMCGkQiQSiUGFSkUlJiaCMVbuw78RERGIj4/HsGHDqqX405NIJLC1tRWGS+Tg4FDuk1tK4+joCGtr6xKvIW1vb4/OnTtj0KBB8PT0pOKPEEIFICHEdFy/fh0dOnTA9u3b+bNhHz58iBo1asDJyUnYvES9evXChQsXMGvWLGGqyjg4OEAkEr3wOs2WlpaoWbMmMjIyKjQWLzY2FjNnzsT169f5WO3ateHg4FBsDCAhhJSGCkBCiMkIDQ1FamoqVq9ejSNHjiA2NhZHjx5Fw4YNy91rJZVK0bBhQ35+w+rg7OyMmjVr4sqVK8JUMVKpFB4eHoiOjq7QlCzff/89/vjjD/z000/82cASiQRisbhC6yGEmC8qAAkhJmPUqFHo2bMndDodFixYgN69eyM+Ph5Tpkyp0sPOhnJ0dISHhwfOnz/PX7u5NG3atEFWVhbOnDkjTJWqX79+kEql+OOPP9C7d2/s2rULhw8f5q9KQgghL0IFICHEZNSpUwd79+6Fv78/f/3jQYMGPXdSg6mTy+Xo27cv4uPjERERIUwX06pVK75YzM/PF6ZLNGDAAFy6dAmDBw9GUlISli1bhg0bNkCn0xWb6ocQQkpDZwETQkxSeno6bt++jS5duvDXOX6VcByHe/fuwdPTE1ZWVsJ0MYmJidBoNMUmyi6vZ8+e4caNG4iOjkb79u3RoUOHaj38TQh5NVABSAghhBBiZugQMCGEEEKImaECkBBCCCHEzFABSAghhBBiZqgAJIQQQggxM1QAEkIIIYSYGSoACSGEEELMDBWAhBBCCCFmhgpAQgghhBAzQwUgIYQQQoiZoQKQEEIIIcTMUAFICCGEEGJmqAAkhBBCCDEzVAASQgghhJgZKgAJIYQQQswMFYCEEEIIIWaGCkBCCCGEEDNDBSAhhBBCiJmhApAQQgghxMyIGGNMGCSEkIpQKpVQq9VQq9UoKCjgl/WPOY6DVqvlbzqdjo/pl3U6HbRabbHlkm5isZi/SSQSSCQSiEQifrloruh9ScvC50okEkilUkilUshksmLLEomEj+nvrayshH8KQgh5JVABSAgp5sGDBwgPD0diYiKSkpLw9OlT5OXlQalUQqVSFbvl5uYKn262LC0t+YKxPDexWIzExERkZGTAy8sL7du3R/fu3dGtWzfhqgkhxOioACSEAADS0tIwf/58nDt3rlhcLpejRYsWkEgkxeL6njOpVMrfi8XiEh+XlpNIJMV6BbVaLRhj/GN9TL/8osfC52u12mI/s6lSqVSIjIyEWq3GtGnTsGTJEmETQggxKioACSHIzc3FiBEj8ODBAwBAy5YtMXHiRLRp0wbNmjUTNieVQKlUwt/fHwEBAfD29saBAwdgY2MjbEYIIUZBBSAhBPPnz8eRI0cAAL6+vpgzZ46wCakid+/exXvvvQdvb2/s3r1bmCaEEKOgs4AJMXPPnj3ji79Dhw5R8VfNvLy8MGfOHJw7dw5//fWXME0IIUZBBSAhZu748eMAgClTpqBLly7CNKkGkyZNQt26dbF161ZhihBCjIIKQELM3OnTp9GgQQMsXLhQmCLV6LPPPkNoaCjS09OFKUIIMRgVgISYsby8PISEhGDSpEmwtrYWpkk1GjRoEADg0qVLwhQhhBiMCkBCzNjly5fBGKNDvybIzs4OUqkUDx8+FKYIIcRgVAASYsZu374NOzs7tG7dWpgi1UwkEqFu3brIz88XpgghxGBUABJixiIjI9GuXTthmJgIrVYLlUolDBNCiMGoACTEjKWmpsLOzk4YJiYgMzMTycnJwjAhhBgFFYCEmDGlUgkLCwthmJiAzMxMoPBQMCGEGBsVgISYMY1GAysrK2GYmACFQgEAEItpM00IMT7ashBixrRaLXQ6nTBscgIDAzF37lxoNBph6j9LX/hJJBJhihBCDEYFICFmTt/TZKoYYzh79iwYY5DJZMJ0hXAch7CwMHAcJ0yZHBsbGwCAVCoVpgghxGBUABJi5ky9AAwPD8epU6eE4ZeSnJyM999/H/v37xemTE6NGjUA6gEkhFQSKgAJMWMSicSkC8D8/Hxs3LgRI0aMKBZnjCEyMhJ3794t1ptXWlzvtddew++//462bdsCAFQqFXbv3o2uXbuiYcOGOH/+vPAp1UZfABra60kIISWhApAQM2ZhYWGyBSBjDPv27UODBg3Qs2fPYrmffvoJI0eOxLRp0/DWW28hMTGxzHhRUqkUtWvXBgDs27cPO3bswJYtWxATE4NevXoJm1crR0dH6gEkhFQKKgAJMWMWFhYme6WJoKAgnDlzBpMnT8ajR4+QmpqKhIQE5OfnIzQ0FL/99htCQkLw9ttv48cffyw1LvT48WNs3LgRHMdh9OjRaN26NT766CP88ccf0Gq1wubVytR7aAkhry4qAAkxY5aWliZZYISHh2PJkiW4ffs25s6di8uXL8PGxgbOzs7Iz89HeHg4goODodPp0LJlS8THx+PZs2clxhUKBdLT05Geng4AcHFxQVpaGnJycmBnZ4eAgAAcPnwY58+fR9++fRERESH8caoNx3HIyckRhgkhxGBUABJixqRSKZRKpTBcrSIjI+Hr64tNmzYhJiYGx48fx/Tp05GTk8P30Hl7e+PRo0do2bIl5syZgylTpsDa2rrEOGMMH330ET7//HNoNBrI5XJYW1sjIyMDFy9eRJ8+fXDt2jV8+umnGDx4MFatWmUyRXFBQQE/ITQhhBgTFYCEmDGZTGZy15q1srLCwYMH0b17dz72+uuvY/z48bC0tAQKey6XLFmCqKgo3Lx5kx+7V1LcxsYGCxYswLJlyyCTyWBjYwN7e3tkZmbijTfewNq1axEcHIzJkycjPT0dy5cv56dgqW6MMeoBJIRUCioACTFjMpkMarVaGK5W7u7ucHJyKhazs7PDkCFDXmpOPJFIhHbt2sHZ2RkKhQIikQivvfYasrOzIRKJ0KlTJ/zwww84d+4c1qxZgyZNmghXUa2oACSEVAYqAAkxYzKZDBzHlThliqmytLRETk4OP6bvRXG9tWvX4qOPPkJeXh4kEgmio6OFTUzSq3ClFkLIq4cKQELMmFgshkgkeqWmGnFwcEDDhg1x9erVcsX1Zs+eDVdXV3h5eWH9+vWoX7++sInJEYvFkMvlwjAhhBhMxBhjwiAhxDxMmzYNd+7cwfXr14Upk6bVavnitTzxojiOg1KphJ2dnTBlctq0aQMvLy/s3btXmCKEEINQDyAhZowxxk+K/CqRSCQlFnmlxYuSSqWvRPGHwp/VVE5IIYT8t1ABSIgZY4w9d8IFMR01atSAra2tMEwIIQajApAQM6ZQKODg4CAMExNRr149mgeQEFIpqAAkxIylpKTAyspKGCYmonbt2q/M2cqEkFcLFYCEmDFTnAia/D+pVGpy1ycmhPw3UAFIiBlzd3fH48ePhWFiItLS0mBvby8ME0KIwagAJMSM9erVC2FhYXj27JkwRarZs2fPcP78eXh4eAhThBBiMCoACTFjr7/+OjiOw86dO4UpUs1mz54NnU6HN998U5gihBCDUQFIiBlr2bIlhg4dioCAABw5ckSYJtUgLS0N06ZNw8WLF9G4cWMMHz5c2IQQQgxGVwIhxMwpFAoMHz4cUVFR6Ny5MxYtWgQvLy9hM1IFDh06hFWrViE3Nxdubm44cuQI6tatK2xGCCEGowKQEIKcnBwsXboUv/76KwCgc+fO8PDwgKurKxo1asSfiCAWiyGTySCVSiGVSvnlkmJ0BYuyRUVFISUlBWFhYbh58yZu3LiBrKwsWFpaYsiQIVi6dOkrc8USQsirhwpAQgjv3Llz2Lx5M6KioqBUKoVpYmS1atVCnTp18Nprr6FNmzbo0KEDOnfuLGxGCCFGRwUgIaREqampePToETiOE6YqRKvVQqvVQqfTQafTPbes1WrBGHvhcknP1+l0wperNCKRCBKJhO/plEqlkEgkkMlkxe6FeUtLS8hkMtjY2BS7yeVy4UsQQkiVoQKQEEIIIcTM0FnAhBBCCCFmhgpAQgghhBAzQwUgIYQQQoiZoQKQEEIIIcTMUAFICCGEEGJmqAAkhBBCCDEzVAASQgghhJgZKgAJIYQQQswMFYCEEEIIIWaGCkBCCCGEEDNDBSAhhBBCiJmhApAQQgghxMxQAUgIIYQQYmaoACSEEEIIMTNUABJCCCGEmBkqAAkhhBBCzIyIMcaEQWJe4uPjsXfvXty7dw9Xr14FANjY2KBFixaQSqXC5sQIHBwc0KhRI7i6usLLywutWrUSNvlPyc/PR0FBAQoKCqDRaEq812q10Gq10Ol05VrmOO65mHBZLBZDLBZDIpFAIpE8t6x/LIy/aFkmk5V4s7CwgFQqhUwmg1wuF/4ZCDE7KpUKSqUSSqWy2LJarUZeXh7/WKFQ8MvCxwqFAhqNBhzHlfhZ1z+uSFytVgt/VKDwu6+0z70wJpVKn2srk8lgZWUFW1tb2Nraws7ODra2tpDL5fyyra0t7O3t+cf29vbVsr2olAKwIDISBVFRKLh/H5rYWEDwEqygAEyrBbTaf+85Dozj/v+xVvvvY44D02rBVKpiz68uYrkckEgAkQgiiQQQiwGJBCKx+N9lsfj/42Lx/8f1bSQSiCQSSGrXhqxJE1g0bw5LL69/11tNtmzZgnXr1gEA6tWrB1dXV2GTEuk/iFqtttiy8LH+S7porLQPnjkbPXo0vvrqKzg4OAhT1S4uLg43btxAQkIC4uPjkZqaCgBQq9VlFnUKhUK4KrNlbW39XLEoLBgtLS0BAB4eHmjbti3atm2LRo0aCVdFSLVLSkpCdHQ07t+/j8ePH+PBgwfFirmihR4pP31RaG9vDwcHB7Ru3RpyuRy1atVCw4YN8cYbbwifYhCjFoDKCxeQvmIFtJmZfMyydWuILCwAkei5AokvkooUSGUWV/o2+vWIRMDL9FBpNP9feBa91xeeRQtTQd5gjEETF1fsb2TRtClshw2DfOBAiKuwAJg5cyb++OMPuLi4YO3atejVq5ewSbVTKBTgOA4ajYYvKPV7gvqbPqfRaIRPr3SWlpawsrLib9bW1vzyi0RHR+PChQv47rvvkJ2dDUdHR2zbtg0dOnQQNq0WmZmZ+Oabb7Bv3z5hihhJzZo1i/UIPHz4EOnp6Xy+b9++WL9+PRwdHYs9j5DqcOrUKXz77beIjo7mYw4ODvD09ISNjQ2/PRTe63vKRCIR31NWkZtEIoFIJCrxsXBZIpEU6/1jjJX78YtujLFivYhFn1sRKpUKGo3muR1n/bJGo0FeXh5u3bpV7HlOTk6YO3cu3nnnnWLxl2WUAlCXk4NUX1+o79wBANgOGwbbYcNg6eUlbEoKcYmJ0MTEQB0WBkVwMDQJCRBZWMBx2TLIBwwQNje6b7/9Fps2bUKdOnVw+vRp1KpVS9iEVJH8/HysXbsWe/fuhYODA4KCglCvXj1hsyoVHR2NkSNHIjs7GwAwYsQI9OvXDy1atICbm5uwebVRqVT8joHwpt8pKHqv75E2NpFIBKlUyvfmCZeF9/revpLExsbi5s2b2Lt3L+7cuYNatWph06ZNJrGDFh8fj6tXryI5ORlZWVnIyMgwqJdSf1RA/6X6MsvC2H+Bl5cXGjVqhJYtW8LLBL5H7927h9mzZ+PBgweQy+V499130aFDB7Ro0QL169cXNidGolAo8M8//+DixYs4ceIEMgs7jsaNG4e1a9cKm1eYUQrAlBkzoA4LQ01fX8gHD4bY1lbYhLxAQUQEMjdtgurGDdTdsweWrVsLmxiNSqVC+/btkZubi2XLlmHKlCnCJqQaTJw4ERcuXMBbb72FgIAAYbrKqNVqDBgwALGxsWjRogVWr14Nb29vYTNSBfRDNORyOf7++2/Url1b2KRKnD59Gt9++y3u3bsnTJFKZm9vj9mzZ2PatGnCVJV48uQJhgwZgvT0dEyePBmzZ89GzZo1hc1IJUtPT8eyZctw8uRJAMDy5csxefJkYbMKMbgAVF65gtSPP0adb76BTe/ewjSpAKZUImnUKMjc3eH0/ffCtNH8+uuv+OyzzwAAd+7cQY0aNYRNSDWIjY1F78LP0D///FNte9Z79+7FV199BVdXV1y8eFGYJlXs7t27ePvttzFq1Ch88803wnSl++qrr7B3716gcHyij48Punfvjo4dO5bZk1kWlUoFjuNQUFDA99jql/WHwITLRfPCtkXbVQapVAoLCwt+3Kb+pn+sH/hfNK8f11m0vbW1tXDVJXr06BFOnDiBEydO8Idb3d3d8f3331f5CWOTJ0/GuXPn8NFHH2HhwoXCNKligYGB+PDDD2Fvb4+rV68advIIM1Dy5MksceRIYZi8pKyffmLx3t7CsFEtXbqUubq6sokTJwpTpJrNmDGDubq6st9++02YqjJdu3Zlrq6u7NKlS8IUqSYbNmxgrq6u7MaNG8JUpdqzZw9zdXVlEyZMYJcvXxamSRW4cOEC8/HxYa6urszLy4vFxMQIm1Sae/fuMVdXV9amTRumVCqFaVJNVq5cyVxdXdmuXbuEqQoxaB7AgqgoqO/cgd2IEcIUeUkyDw8AgLbwTMvKcP/+fQBA//79hSlSzQYNGgQU+R9Vtbi4ODx58gSDBg1Ct27dhGlSTWbNmgV3d3fs2bNHmKo0ubm5WL9+PVq1aoWff/4ZXbt2FTYhVaBnz544ffo0Jk+ejKysLHz55ZfCJpXm/PnzAICRI0eW68Q2UjXmzZsHNzc3BAYGClMVYlABqImJAQBYdewoTJGXJNIfUjHsyHyZ8vLygMINCzEtnTt3BgrHe1SHK1euAAAmTJggTJFqJJPJ4O3tjcuXLwtTlWb79u3Izc2tlsPO5HnLly+Ht7c3rly5UmXvg7CwMIC+K0yOlZUV3nvvPYSEhCAjI0OYLjeDCsCCmBiIHRwga9xYmCIvSVf4xS9xdhamjEYul6NOnTpo0KCBMEWqmZOTE2xtbSGRSISpKqHveXz99deFKVLNevXqhbS0NMTGxgpTleLw4cNo3749mjVrJkyRavL9999DLpfj8OHDwlSl0BcXHamTx+R4e3uDMYabN28KU+VmUAGoiYmBRfPmwjAxgDY9vdLnArS2tkZz+r+ZLHd3d2iNMefkS8jMzET9+vVhZ2cnTJFq1qNHD6BIL21lun37Np4+fcq/JjENDRo0wLhx4/Dnn39CVQUXSJDJZGjUqBEd/jVBrQtnCnnw4IEwVW4GFYDajAzocnOFYWIAbWZmpV8ZRKfT8YeBiemRy+XIrabPlUqlQmPq0TdJtWrVQqNGjRARESFMGV1oaCgAGP3KA8RwnTt3hkqlwvXr14Upo5NIJHB3dxeGiQmwtLSEp6cnHj16JEyVm0EFoC4rC7oiV7QweYyBmfilaXRZWRDb2wvDRlVQUEAFoAmztrautgJQJpPR5ZtMWEpKCrKysoRho4uPj4dcLqf5H02Q/mScyMhIYcrosrOzIZPJhGFiIjQaDZ4+fSoMl5tBBSBTKKA1YADiy2BqNdKXL4cmLk6YeiH1vXtIW7gQuvx8YcpkMI6DuJIPv3EcZ/LX401NTcWRI0cqbV4vUyaRSKrtOroWFhbVVnySsikUCuTn51fJZzcxMRGdOnUShokJkMvlaN68eZWMBc3MzKQC0IQpFIrqOwmEabVgKhVYJV+DVRMXB11hj5UuOxua+HiIXvJNKalTB2IbG2HYZOgyM6Gr5D18sVhs1DFmlfGlFBERge3btyMnJ0eYMkhqaiqWL1+O8PBwky0uOY6rtgJQJpO9Ur3DwcHBWLVqlTD8n6T/v1TF+zYrK6vckxaTqicSiaqkJzgrK6vaTkgjL6bVavHs2TNhuNwMKwALN0TMyF/+QtnbtyPv6FGg8CQJSc2akLzExdG1qan/FqsikTBlMrQ5OdBV8iE4S0tLo32oOY7DkiVLcPfuXWHKIJGRkWCMgeM4/P7770hOThY2eWlXr17F4MGD4eHhgWHDhuHs2bNGLYgNpdFoqq0AtLS0NHoBGBgYiLlz50JTxo7i06dPkZiYKAyXiyF7wEVFRUVh9erViI2NNan3g57+/2LgxZvKJScnBxYWFsIwMREcxyG/ko9kMcZe+UPA5dn2VAVDtm9lkUqlBm2vDSoAUVgAVua1f3X5+eCePkVB4Zku3JMnkLq6QlRk75QVFPDz5jG1GhmrV0NVOIgZADQPHyL32DGA4yBzdeXjz9HpivVm6vLzkblhA7jHj5G1bRty9uyp9N5OXW5upY9TtLKyMloBmJWVhczMTKMPFI6Li4OjoyNEIhFOnz6NZcuWGaWX0cnJCc2bN8eKFSvw4MEDzJ49G7/88gvef/99kzn0qdVqq60AtLCwQHZ2tjD80hhjOHv2LBhjZX6RhIeHY/PmzcVijx49QmBgYJkFD8dxRjtjmTGG3377Db1790bjxo0xefJk3Lp1q8zXr0pVWZTm5OSU+f+qTIyxanv/G0t+fj4++eSTSjtMW1UFIGMMUqlUmHopUVFROHDgwHOxDRs2VEqvdnm3PVWhpO2bMUilUoO+Fw0rAItOXFxJuMTEfw8BK5VgGg1UN27wE09r09KQ8sEHSBw8GEmjR0P599+ARAKdSoUC/UXLGUPOoUPQZWZC8+gRuCdPkHvgADI3bIA6PPzfwpEx5B0/jic+PkgaPhzPFi36d5wgx6Hg4UOkLVwIMAZLLy+IjPRhKA3Lza30MYr661MaQ1RUFJycnOBYSo8sV3idz5KkpqaW2rPHcRyaNm2K2rVrw9/fH9u2bSt23dG8vLznNq5arRaZmZllflGq1Wqo1Wo0b94cEokEzZo1w/Dhw5GQkIA///yTb6fRaEr84s/Pz39uw8sYw61bt7B69WqjFAwcx1XJFA8lsbCwgE6nE4ZfWnh4OE6dOiUMP4fjOMTFxWHv3r1YunQpYmNjkZCQgMWLF+PatWvC5ry4uDjUrVtXGH4prq6u8PT0xJ49e3D37l2MHj0afn5+WLJkSanv4apUlV9iOTk5EBn5SIlWq0VYWBhu3LhR5mckPDwcvr6+z33OKqK8PS4BAQHYtGmTMFxMXFzcS/Uyq9Vqg36HsnBVMI5bLBbD0tLSaO+7c+fOISUlpVhMo9EgODj4pf6+L1LebU9VKGn7Zgwymcyg7wrDCkCJpNLH06lCQyH38YEuMxPqW7egiYuDRdOm//b0rVkD22HD0OD0adj4+CD38GFAq4V8wAAUPHwIMAb13bvgHj+G3ahRAAB1eDhE1tawaNEC6UuWQPnPP1D+8w/y//wT9X79Fc47dkB99y7Ud+4AUilYQQGsOnVCjRkzYOntXemHj7VZWWAG/EPLw9LS0ijzOun3sAYMGPDclwXHcfD394e3tzf69OkDPz8/fq91zpw5+PPPP/Hmm29i4sSJSE9PB8dxWLRoEdzc3ODt7Y3Q0FB069YNIpGo2MZ8yZIlCAwMxFtvvYWRI0fycyAlJydj1KhR6NChAz7//HOcOHGixKtp5Obm8l/unp6eGDduHM6cOYPFixdj+PDhSEtLw4QJE9CpUyf069ePvxQSYwx79+5F27Zt0adPHxw/fpzPBQUFYfny5XB1dcXSpUsRU3iFnJel1WqrreCwsLCAjZE+0/n5+di4cSNGFLlUZHJyMjZs2IC4uDj4+flh//79GDBgAGbMmIG4uDgkJCSgd+/eqFu3Lnr06IGbN2/yV0dRqVQ4ceIEdu7cWeJhj5IKccYYrl27hpEjR8Ld3R0LFiwQPo2n/0L18PCAhYUF2rRpg2HDhuGvv/4qNtlqSV+8pe185OXlYefOnaX+zBWh32kTiw3bbL+ITqeDWq1+7nd5WampqdiwYQM6dOiABQsW4Pjx4y/s4XN2dq7Q+1DYW1yeHpf8/Hz8/fffL9wWBgUF4dixY8Vi58+ff+FZuCKRqFLHUVbFNsJYk9IrFArcunULffr0EaYglUohFouRl5eHNWvWoG3btmjRokWxv29Jn6N9+/bh6tWr+OOPP7By5cpinQklbXtQxjZEv/4TJ07wBRVjDJGRkfjzzz+RlJTEt9VqtfxMCYwxREREPFeE6Ts3MjMzS92+GYO+OC8oKBCmysWgLYlIIoGoAh/SimJKJdS3bsF2+HBInJyQOns2pK+9BomjI3TZ2WBaLay6dIH69m0ogoKgSUyEJiEBFk2bgktMRN6pU8jcuBE1Pv4Y4ho1IJJKYd2lC2yHDYONjw+kr70G7skTFERGQu7jA5GVFbK3bgXEYijOnoXYxgbSunVh2bp1pRd+vMLXqcwiUK1WG6WX58mTJ4iJiYGXl5cwhUOHDiExMRGhoaHw9/fHyZMnER8fDxSO2dq0aRM2btyIJk2a4MmTJwgMDERycjIiIyNx8uRJFBQUIK7wTO/w8HCcPHkSjDEolUps2LABH330EQYPHozY2FioVCosWrQInp6eiIqKwsKFC7Fr1y5kljBFUVpaGurXr4+bN28iJiYG586dg5+fH/r06QONRoMlS5bgnXfewY0bNzB06FDs3r0barUaly5dwnfffYfDhw/j2rVrSEtLw7lz55CUlAQ/Pz80a9YMSqUSFhYWqFmzpvBlK6SgoKDapmIx5s7Bvn370KBBg2KXkdJoNAgJCcFHH30EZ2dntG3bFrt27UJAQAB69uyJr776Cr169YKNjQ04jkNERAQ4jkNubi6mTZuGX3/9FRcuXCh24od++EFJhXhUVBQ+/PBDDBs2DFFRUVi/fj3/PKGUlBTcvHkT3bt3R5s2bTBt2jSEhYUhICAAHTp0wMOHD+Hj44Pu3btj6NCh/BdUaTsfubm5+OSTT5CWlsYXvIbQFxPG+EIui743xtBxUxzHYcOGDejRoweSkpJw9OhR/staXsZcpykpKSgoKHhup7Iswt7i8vS4XLx4sczeZT19z+UPP/wAPz8/JCcnIzQ0FHPnzi1xG4PCAiQ7Oxv2lTSll1QqNco2/EVsbGwq9H8oTV5eHrKzs+Hi4lIsfvfuXdSuXRt2dnZYsWIFQkJC8Ntvv+HevXv8xQpK+xw9ffoUmzZtwsmTJ9GtWzc4FF5AobRtT2nbkMTERIwaNQohISHYtWsX9u3bh9zcXHz66aeYNGkS/vzzT4wfPx5ffvklVCoVLl68iJkzZ0KpVCIzMxNfffUVoqOjS+zc0Gq1pW7fjEG/LShpp7Q8DCoAIZVWag+gNj3935M+HB1hP3EiZB4esH/nHUAkgrjwRJAnPj54tnQpaq9eDXn//lCcOQNJ7dqwGzcOmX5+kA8YAMvCAkU+eDAK7t/Hk3798KRfP4isrCAfNAhWnTsja8sWPOrWDWI7Ozht3gxNbCy4xERAKoW2lA95ZZAUFg+VeWKN/jCooe7fv4+cnBz+TVh0zygiIgJDhw6FSqXCxo0bwXEcLl++jPz8fDx48AAjR46Ej48P3N3dkZycjMTERIwYMQJisRj+/v7w8vJCeHg4VCoVpFIpwsLCkJOTg0ePHqFLly4YMWIE2rdvj4cPHyIvLw/x8fFo37490tLScPjw4VIvdVdQUAAbG5sSi5ycnBxotVp0794dN2/exLFjxxAfH4/4+HhERUWhYcOGqFmzJsLCwnDq1Cn07t0bDx48QKtWrTB+/Hi4u7tj9+7dpR4OL6+q2LMvjVKpNMoGPygoCGfOnMHkyZPx6NEjpKamIiEhAVZWVnjy5Ak++OADTJw4Ec2bN4eLiwtsbW2f69lSq9X46aefkJGRgUOHDsHFxQU7duzAjh07sGjRIqDwi0UqlZZaiDdt2hSffvopNmzYgA0bNpTZC5eSkoLu3bvj/v37iIyMRFBQEFauXAlvb29kZGRg0aJFWLt2LUJCQuDm5oZDhw6VufPx888/IyYmBvXr10diYiKaNGkifMkK0e9YCP9OxqbvnTPG+zA7OxtisRg9evSAq2D8tVKp5HsZMzIy+B0+juMqPKZY31vs6elZrh6X5ORk7Nq1C2+//TYfE/YoXbt2DW3btoWfnx/CwsKgUCjQs2dP1KlTB/Pnz0dgYCD/PympB6kofc/Td999h9TUVGG6wiQSidF6aMsil8uNUmiKxWKIRKJiP7NKpcKff/6J3r17w9LSErNmzQIAzJw5EyEhIXxvbmmfI1tbWyiVSqxevRp9+vThi6rStj2lbUM2b96Mt99+G1u3bsXhw4cxfvx4PHv2DDExMTh8+DA2btyI4OBgaDQanD59GtHR0ejQoQOsra0REhKC6Oho/ncSdm4kJiaWun0zBv34zLKGVJTFoJ9IJJVWag+guGZN1PjoI4hr1YJlq1Zw2bePv+6wSCaD45IlcLt+HfVPnoRF8+ao8eGHqPHxxwAAeb9+eO3vv2E3bhy/PkmdOnD+8UfUO3YMDYKCUGfdOojt7GDZqhUaBAfD7fp11Jw7F7KGDVF3505IGzSA4+LFsB0yhF9HZdPPAah7wSESQ6jVaoP37gGgYcOGePz4Mby8vODm5oZGjRqhVatWuHr1Knr27Il3330X7dq1w5tvvomAgAD89ddfYIxh5MiRGFV4SL5z584ICwtD48aNMXfuXLRp0wZSqRR+fn6QSCSIioqCs7MzHB0dYWNjgx49emDGjBmQSqVo0aIFHj9+DAcHByxZsgQBAQEYMWIENm7ciLZt25ZY5OXm5iItLa3ELvNatWqhTp06aNOmDT777DMEBARg5MiRCAoKwjvvvANXV1e88847mDRpEjIyMtCsWTN4enoiOjoaYWFh8PLywv3797FlyxaDpq/R/2+M8QVcUUql0uANVXh4OJYsWYLbt29j7ty5uHz5MmxsbODs7Ay5XI6WLVs+d7URR0dH5ObmQqFQYP/+/di9ezc/1UVCQgJ/SLKgoABSqZQ/8SMtLQ15eXmlFuJisRgTJ07ElStX4OLigjfffBN79+4tcYOpUqlga2tb4vsmKSkJDRo0QOvWrXHq1CncunULt27dwqNHj0rc+ahVqxZu3bqFlStXom7dupg/fz4mTJggXG2F2dnZGfz/eRH9Z8PQ959UKsWKFStw4MABHDt2DN7e3tizZw+4wmmOPvjgA1y8eBEA8Mcff8Df3x8oHHOXkJCAvXv3YvXq1QgLCwNjDI8ePUJCQgKOHz+Offv24e7duxg0aBAePnzI9xbb2tq+sMeFKxye0rdvX7Ro0YKPC3uUWrRogVOnTmHevHkYM2YM5syZg06dOkEqlSIrK4sf6lFSDxIKD2PL5XJwHIcVK1bg0qVLYIxh8eLFBu+AG+vEjBcRiURGGcdYo0YNODk54ddff4W28CS3devWQavV8odpXVxccPToUWzcuBH+/v4YNWoUYmNjS/0cNWnSBI0bNy52xKWsbU9J2xDGGFQqFbRaLbRaLSwtLSGXy/llfa97Xl4eUlNTUbNmTdSpUwdJSUl49OgRtm7dCkdHR+h0ulI7N1DK9s0Y9J0vLzum36AticjSslLPABbL5bDq0MHoJ16I7e3LffKKyMLipeccfBmVfRUQFBaAhm7cAaBx48a4fv06wsLCEBYWhvj4eNy4cQPt27fHgAEDEBMTg5iYGEycOBFt27bF3r174ezsjLlz5/If2h49emD+/Pnw8fFBaGgoQkJCsHr1atSoUQObNm3C66+/jubNm2PlypWQyWT45JNP+J6Epk2bYt26dZDJZOjVqxfOnTuHK1euYOTIkfx1EoW6dOmCI0eOlHiYViqV4uuvv0ZCQgL+/vtvtGjRAp9++il8fX1hZ2eHjRs34sqVK9izZw+8vb1Rs2ZNuLi4YOfOnYiKisL48ePx+++/o3379gadmWqM/83LUqvVBg36joyMhK+vLzZt2oSYmBgcP34c06dP53tXRSIRNBrNc18q1tbWiI6Oxrp167B//3507doVNjY2aNiwISwsLDB27FioC0/ecXNzg4eHB65evYomTZogOjq61EI8ISEBb7/9NgICAtCtWzesXr0a27ZtQ1RUVLHXB8Afti1p56hhw4Z49uwZmjRpgp07d+LgwYNo0qQJoqKiStz5qFWrFjp06IAtW7agYcOGsLe3x5EjR/hxoy+rZs2alf7lr//9S/o7VJRIJIK3tzd+/vlnBAYG4s8//4S/vz8UCgU0Gg08PT2Rn5+PkydPFnvejRs3YGNjg1atWmH27Nm4dOkSHjx4gC1btuCbb77B2bNnsXHjRmRmZuLatWt8b3FmZmaZPS6MMb5XuX///khMTERsbCwyMjKe61Gys7NDvXr1StwhePz4Mfbs2QOU0oOkUqn4nYzg4GAEBQXB09MTT548wWuvvfbSX9h6Mpms0t8HKOy5M8bsCFKpFF988QWCg4PRqFEjtGzZEunp6QgICOC3lfv27cPw4cORmJiIVatWoX79+vjhhx9K/RxJC6dA0b9PX7TtKWkbcu3aNcyePRtnz56Fh4cH3Nzc0LFjRzDG0K1bN/j4+KBTp04YMmQIRo0ahe7du+PNN99EYmIiJk+ejBUrVmDIkCEIDw+HXC4vsXMDpWzfjEH/HijpPVouzACJI0eytC++EIaJAVJmzWLx3t5Mm5kpTBnNsGHDWOfOnYXhV1pOTg7LyMhgKpWKLViwgCUkJAibGITjOJaYmMg4jmMXL15kGzduFDYxmm7dujFXV1dhuEosWLCA9ejRQxgut9jYWJaSklIslpOTw06cOME0Gg1jjDGFQsE4jivWRqfTsd9++43t2LGDZWRkFMuVRaPRsJycHMYYY0lJSWzx4sXszTffZEuXLmXXrl1jOp2OJSUlsZUrV7JevXqx999/nwUGBj73+vp1FRQUCMMVMn/+fHbx4kXGCt8zgYGBbOjQoWzcuHHs559/Zunp6cKnVMiAAQOYr6+vMGxUt27dYq6urmzixInCVIVcvHiRTZkyhcXFxTGdTsfy8vLYpk2b2IwZM1haWhp77733WFhYGNu6dSvr3bs3mz17NtPpdOzHH39kq1evZjqdjmk0GjZ9+nT2888/szNnzrCGDRuy2bNnM1dXV7Z161YWGBjI1q9fz/Lz89mUKVNYSEgIY4yxu3fvsg8++IDl5+ezn3/+me3atYsxxlhwcDDz8PBgzZo1Y+PGjWNDhw5lK1euZBzHsTNnzrDPPvtM8FswdubMGTZ//nzGGGMrVqxg586dYxEREWzChAksMzOTffrpp2zz5s38+5sxxuezsrLY/Pnz2bFjx9iFCxdYSEhIie+9iho6dCgbOHCgMGx0gwYNYmPGjBGGK4X+8zJu3DjWv39/9vXXX7OkpKRSP0ccxzGFQsE/vzzbnsrAcdwL1/+y27cXGTNmDHN3dxeGy+35XaQKEFlYAFWwF2JO9IeAi85zaGxqtdoo47xMSUBAAIYMGYITJ04gJSWlxB4+Qzx69AjDhg3Dhg0bcPz4cXh4eAibGI1UKq3UswfLolQqDepZcHd3h5OTU7GYnZ0dhgwZwq/X2tr6uRMZRCIRhg0bhqlTp1bof1f0cLCLiwtWrlyJ4OBgLFu2DB07doRIJIKLiwsWL16Mc+fOYfv27Rg4cOBzr69f18v0fubm5iIzM5P/XOl7qCUSCQYOHIjjx4/jwIEDmDBhAmrVqiV8eoUY66zMsugPT5Y0TKIiPD09UadOHQwcOBANGzZEq1atEB0djZUrV6J27doYP348xowZg8zMTGzbtg0ZGRnIzMzEsGHDEB4ejnbt2sHb2xtWVlb8+2fQoEH44IMP4Ovri/fffx+enp5IS0uDRCLhe4tRSo9LcHAw/Pz8EBQUhMjISBw4cACjR49GamoqxGLxcz1KelZWVrh+/ToWL16MO3fuoHXr1qhTpw6cnJwgk8lK7EFSKBRQq9XIzs6Gj48P39PVoEEDBAUF4WjhhQ1eloWFRYk9nMZmrB7A8tB/Xg4cOICgoCB8+eWXcHFxKfVzJJFIim0ny7PtqQwSieSF63/Z7Vt5GNKbLGIlDYYpp6dTp0Lq7Izaa9YIU+QlZaxfj9xDh+BWZNoJYxs4cCA//9J/hUqlwu7du+Hv748NGzZg4MCBwiYGi46Oxty5c2Fra4tt27YZdJi3LH369EF6ejru3LkjTFW6qVOnIjExsdiciKRsa9euxf/+9z98+umnCAwMhL+/f6W9N4YOHYoaNWrwhx8rw8WLF/Huu++iY8eO+OWXX4TpSqPRaCCVSvmd05ycHFhaWhab/7O8GGM4ceIEMjIyMHz4cNSsWRMRERFwdXWFbZFhS8nJybh79y769esHnU6HgoKC53a+OI7jx5T279+/3Gdw5ubm8js7ISEhCAgIQE5ODgYMGIC3334b9evXFz6l3MaNGweFQoETJ04IU0Y1dOhQZGRk8GM1iWkZPXo0YmJiik1TVREG7UKILC3BquBMJHMicXCo1BNrUDjVh3Aj96qzsrLCzJkzcefOnUop/lA46PjEiRPYt29fpX3Bo3CPUj+lQVXLz89/4d4sKW727NmYMGECli9fjrFjx1bqe4Mx9lwPlbHpe5aqeiyqTCYrdmTC3t7+pYo/lNLj0qJFi2LFHwp7jfv37w+RSPRcj5KeVCrF+++/j+HDh5e7+ENh75O+oO3UqRP27t2L48ePY+bMmQYVfyj8maric2ppafnceF1iWgzpUTSoAATHQZuWJowSA+hUKogq+RCPMSf7NTWVvVHUf1FUJolE8tyhjKqi0+le6jCoOauKnQ89kUhU6cM39NuGqphmhLwcceFVOipb0R5ZYno4jjNorkmDCsCCmJh/L7lmhHmCyL8KIiP/vbZxJbKysvrPFoD/BVKp9LkJU6uKRCKpki+W/6LK3vnQq+zX0feC0Re/6ZJIJAaN/SovqVSK2rVrC8PERDDGUKNGDWG43AwqAMFxYByHAgMvfUUK6XRQh4eDVfKhF5FIVOlfIuTl2dnZVfphvtJYWlrSzoEJE4lEBp9I8iL6ArAqCgzycvTjJSubRCKhAtDEVVsBKC280kJBCXNqkYoriIoCUyggreTDf5mZmUaZ3Z1Ujho1ahS79mRVksvlBk9SSypPdnZ2pV8m0M3NDSjcGSCmqaCgoEqGatStWxcPHz4UhomJSE5ONmhIkkEFoG3hDN55ggtlk5ej/OcfAIBFq1bClFFZW1uXeg1LUv1kMlm1ffnK5XKk0bhek5WQkFAlOwctW7astvcgebGCgoIyr6dsLN26dcPTp0/5614T0/HgwQM8ffqUv3b3yzCoALQbNQqWrVpBffcucg8cEKZJBeUHBgJApV96rnHjxsWuX0hMy71799CsWTNhuEq4ubnh8ePHwjAxAampqfzVVCpb27Zt8eTJE2GYmIjExMQqmQfwjTfegEgkommhTNDly5cBAFlZWcJUuRn8DqqzeTNkbm7I2LABaQsXQnnlirAJeQEuORkZa9ZAEx8PuzFjYN2tm7CJUfXo0QM5OTn466+/hClSzX7//Xc8fPgQffv2FaaqRKtWraBUKku8VBqpXgkJCUDhYbnK1rhxY0RFRSE9PV2YItXs3r17SElJMajnp7zs7Ozg7e2N06dPC1Okmv1TeMRQOLVRRRg0EbQeUyiQsXEj8n79FQAgsrKCdefOsOnXDza9ekFU5Dp1TK0GdDowne7fs4d1OoCxfx8zxsf4fGGsWJ6xf+cfLC2nf251EIkgksn+vYawpeW/90Vv1tbQJCRA8+ABCqKiUBAVxRfNtRYuhN3YscI1Gp1KpULXrl1hZWWFEydOoE6dOsImpBocP34cvr6+aN26NU6dOiVMVwmlUon27dvjq6++wjvvvCNMk2o0f/58HDlyBGvWrMH48eOFaaO6du0axowZg/Xr12NsFWyTSPn98MMPWLNmDTp16oQjR44I00a3efNmbNy4Ef/73//QqpKHJ5HyiYyMxFtvvQWO4zB9+nQsXrxY2KRcjFIA6ikvXUL2jz+iICYGrJIHKv9XSOvXh1W7dqjx4YeQODsL05Vm+/btWLVqFVxdXTF//nwMqeTDzqR058+fxzfffIO7d+/C0dERJ0+eRIPCE6yqw4cffohr164hKCio2uYjJMWFhIRg9OjRqF27Nm7cuCFMG51CoUDz5s0xaNAgbN26VZgm1WjChAm4dOkS+vTpg127dgnTRpeWloaePXuiSZMmOHnypDBNqoGPjw8ePHgAADh48CC6du0qbFIuRi0Ai9Kmp4NLTARTq8EUCujy86FTKsEUCjCl8t+pTnS6f3vydDpAq/3/njv9cimxYs8ruox/e+AgFkMkFgNFbiKx+N+cRPLvGBphTr9c2Kak9fDL+vVIpf/29slkQOG9SCYD9PHC+5KulyypXRuyhg2F4Sq1YsUK7NixAwDQsGFDvPfeexg4cKDBs9STF0tKSsKxY8fw66+/IjY2FgAwePBgzJs3D40aNRI2r1I3btzAiBEj4O7ujm3btsHT01PYhFShJ0+e4N1330VycjKOHDmC119/XdikUvj6+uL48eM4d+5ctb8nyb+uX7+OkSNHAgA++OADLFq0SNikUhw4cABffPEFhgwZAn9/f2GaVJHY2FisWLEC586dAwB4eXnh999/FzYrt0orAMmr4fLly/j2228REhLCx5o2bYrevXvjrbfegpeXV7H2xDBBQUHYsWMH//euV68efHx8MGnSJHh4eAibVxv9lz8Kx4z269cPXbp0QZMmTYRNX4pSqYROpwPHcdBqtfytIjH9VVkkhTt1L1oWi8UQi8VlLpvKma95eXm4evUqgoKC8Msvv8Da2hp79+5Fx44dhU0rTWZmJt544w20atUKB+gkv2qXn5+Pvn37wsrKCrGxsdizZw969eolbFZpRo4cievXr6Ndu3b44Ycf6OhAFQoNDcXRo0dx6NAhPubu7o5ffvnFoCFcVAASoHBAaXBwMBITE5GSkoLHjx/j2bNnwmbECOrVq4fBgwdj6NChaN26tTBtEpRKJWbOnInz588Xizdo0AADBgxA8+bNIZVKkZ6ejszMTDx79gwZGRn8PHUqlQoqlQpqtZpfVqlUxdb1KrC0tOSvu1r0JpPJIJFIit3rc1ZWVrC0tCz1vrRYeno6IiMjceXKFdy7d4//GRo1aoRt27ahadOmxX62qvDrr7/is88+w7p162hMaDV68OABPv30U+Tm5kImk0GhUCA0NFTYrFJlZmbC19cXFy5cAAC0bt0abdq0QcuWLeHu7i5sTgykUCgQHByMoKCgYidjOTs7Y8qUKZg6darBO6xUAJIy5ebmIj8/HwqFgr8vKCiAVquFRqOp0L3wrSbs0dHf65eLxktbFrZnjPG9OUVvRWNlLUul0mIxqVTK9wxZW1vD2tqav5SelZUVH7OxsXnuufrnm1rvUkUEBwcjICAAN2/eFKZIJXN2dsYbb7yBZcuWVcmcb6WZNWsWTpw4gU8//RTz5s0Tpkkl+/HHH/H111+jWbNmsLe3R0hISJX3/hUVEBCAI0eOID4+XpgiRlajRg3Url0b9erVQ5s2bdCuXTuj/t+pACSElEtkZCSys7NhZ2eHli1bCtPEQEqlEuHh4ZBKpWjSpIlB0zsYm7+/PzZs2IBGjRrxQwE8PT2RmZkJR0dHYfNSCXfiiu7ICWP6Hbqy2hdtwxiDWq0Gx3HQaDTF7kuK6XdMhcMLij7WLwvbKBQK4a8GuVzO9wQL76VSKSwsLCCVSmFpaQk7OzvY29vDzs4ODg4OsLW15WNqtRpPnjzBzZs3cfPmTWRkZEAul8Pa2hpqtRpLlizBmDFjhC9fLSIiIpCTkyMM8/Q9//qjAkqlEkqlEgUFBfz/pejfWlc43EN/L/w/CB+j8HJ1+h34koZ1vMxy0R14CwsLWFhYQCaTwcLCApaWlnxMH68okUhUbB0l3aqiw4AKQEIIIS907tw5fPLJJ8jLyxOmSCVzdnZGly5dsHjxYoPGfBFSFBWAhBBCyu3x48d4+vQpxGIxWrZsCasi87wS49D3rFlaWppcbzD576ACkBBCCCHEzBh8KThCCCGEEPJqoQKQEEIIIcTMUAFICCGEEGJmqAAkhBBCCDEzVAASQgghhJgZKgAJIYQQQswMFYCEEEIIIWaGCkBCCCGEEDNDBSAhhBBCiJmhApAQQgghxMxQAUgIIYQQYmaoACSEEEIIMTNUABJCCCGEmBkqAAkhhBBCzAwVgIQQQgghZoYKQEIIIYQQM0MFICGEEEKImaECkBBCCCHEzFABSAghhBBiZqgAJIQQQggxM1QAEkIIIYSYGSoACSGEEELMDBWAhBBCCCFmhgpAQgghhBAzQwUgIYQQQoiZETHGmDBICCGvCpVKBa1WC8YYtFptmcs6nQ46na7YsvCx/jlisRhSqZS/l0gkFbpZWVkJf1RCCDEZVAASQipErVYjLCwMt2/fRlhYGJ4+fSpsUiK1Wo2CggJoNBpwHMcvazQaflmtVguf9p9hbW0NiUQCmUwGiUQCqVTK30qKi0QipKWlIS0tDdbW1vDy8kLXrl0xceJEKi4JIQajApAQUi75+fk4cOAANm3ahPz8fD5ub28PT09PSCSSYu1LIhaLIRKJit3r4yXFSmtbNK6/lWcdRdsK4/rlknoDi/YSlvS4pOWSHgtvL+Lq6gq5XI67d+/ixo0bAAAnJycsXrwYQ4cOFTYnhJByowKQEPJCJ06cwFdffYXs7Gw0adIEXbt2RdeuXdGqVSs0aNBA2JxUgry8PPj6+iI4OBgAsG3bNgwYMEDYjBBCyoUKQEJImYKCgjBjxgzY2Nhg7dq11PNUzTZv3oyNGzfCxsYGZ86coQKcEPJS6CxgQkiZvvzySwDA8uXLqfgzAb6+vujfvz8UCgX8/PyEaUIIKRfqASSElOrMmTN4//330aRJE/7QI6l+qamp6NWrF/Lz83H9+nXUqVNH2IQQQspEPYCEkFLdunULALBw4UJhqlr873//w8OHD4Vhk/T555/j6tWrwrBRODk58T2zt2/fFqYJIeSFqAAkhJQqJiYGUqkUffv2FaaqnEKhwP79+3Ht2jVh6qUFBgZi7ty50Gg0whTv6dOnSExMFIZfqKCgAHl5ecKw0QwfPhwAcOfOHWGKEEJeiApAQkipsrOz4eTkBJFIJExVGMdxWL16NWbMmIFOnTqhRYsW6NatG5KTk4VNS5SXl4e4uDgAwKNHjxAYGAhDRrAwxnD27FkwxiCTyYRpXnh4ODZv3lws9qLX108kXZnz9cnlcshkMqSkpAhThBDyQlQAEkJKZWFhARcXF2H4pUgkEvTv3x9t2rRBgwYNcOrUKZw+fbrc609PT0d2djacnZ2RkJCAxYsXG9QbGB4ejlOnTgnDz+E4DnFxcdi7dy+WLl2K2NjYF76+QqFAdnY2HBwchCmjqlevnlGKc0KI+aECkBBSKolEYrQiRiQSoV27dujevTsaNWrET3JclFarRVRUFDiOKxZHYSHm6OiI1157DT169MDNmzfh7e2NpUuXIiQkhG/38OFDHDlypNTeORROar1x40aMGDGCj509exa//fYbrl27hqVLl+LatWsYMGAAZsyYgbi4OCQkJKB3796oW7cu//qdO3cGCi9Hd+LECezcubPEw776/HfffYfU1FRh+qXVrFmzzMPXhBBSGioACSGl0mg0xa76YQzp6emwtbWFVCrlY8HBwfD398eiRYvQv39/HDp0CABw9+5deHt7w83NDfPnz0fDhg3RoEEDcByHiIgIMMagVCr5cXCMMezZswfp6eml9owxxrBv3z40aNAAPXv25OM5OTnYu3cvNm7ciE6dOqFx48bYtWsXAgIC0LNnT3z11Vfo1asXbGxs+NfnOA65ubmYNm0afv31V1y4cAGrVq0CCg/R1q5dGxzHYcWKFbh06RIYY1i8eLHRLnnHGMP9+/eFYUIIeSEqAAkhpdJoNCX2aBkiMTERjRs3LhbjOA6//PILtFottm7ditu3byMnJwfr1q3DN998g4SEBPTv3x8xMTHIzc2FWq3GTz/9hJycHAwZMgT3798HYwy3b99GXFwc3nnnnWLrLyooKAhnzpzB5MmT8ejRI6SmpiIhIQG2trZ48uQJ1q1bh0GDBsHR0REuLi6wtbXlLy2np3/9jIwMHDp0CC4uLtixYwd27NiBRYsWgeM4qFQqSCQSBAcHIygoCJ6ennjy5Alee+01WFhYFFufIR48eFCuy8oRQkhRVAASQkrFcZzRewCTkpJga2uL1NRUZGZmgjGGuLg4SKVSzJkzB61atYJCoUBGRgZq1qyJDh064MaNGzh//jxcXV0RFRUFkUiErKwsJCQkoFmzZkhISMDJkyexatUqzJs3DzVr1hS+LFA47m/JkiW4ffs25s6di8uXL8PGxgbOzs5wdnZGmzZtnptTz9HREbm5ufxZyLt37y72+mq1GlqtFgUFBZBKpbCzs4NGo0F6ejpUKhXOnj2LxYsXo2nTphgzZgy+/PLLUnsnX4ZGo0FsbKwwTAghZaICkBBSKq1Wa7QewNjYWPTt2xfff/89Zs2ahVGjRmHnzp1QKpXw9PTEvHnz4OLiAicnJ9ja2iI/Px9ZWVno1KkTZsyYgaVLl+Ljjz9GYGAgLC0t0bBhQ1hYWKB27dqYOnUqFi5ciGHDhqFNmzbClwYAREZGwtfXF5s2bUJMTAyOHz+O6dOnIycnB1qtFlKpFDk5OSgoKCj2PGtra0RHR2PdunXYv38/unbtChsbG/71x44dC7VajebNm8PNzQ0eHh64d+8e7OzskJKSAh8fHwQEBMDOzg4NGjRAUFAQjh49Wuw1DFXeM6kJIUSPrgRCCCnV4MGDERMTg6ioKGGqwrRaLbKyssAYQ40aNYqNASwNx3H82bT69hzHleu5QnFxcZDL5XBycuJjubm5OHfuHAYNGgSJRAKlUgkbG5tiz2OM4cSJE8jIyMDw4cNL7V0Uys/Ph1QqhYWFBUJCQhAQEICcnBwMGDAAb7/9NurXry98SoW9/fbbuHv3LrZv345+/foJ04QQUioqAAkhperfvz+ioqIQFxf33Dg4Uv30BeB3331H12kmhFQIbdEJIaXST8eiUCiEKWIC9Pvv9P8hhFQUFYCEkFLpCwxjjQMkxkUHcAghL4sKQEJIqfQFhrHPBCbGZW1tLQwRQkiZqAAkhJRKXwAac9oSYjz6/w8VgISQiqICkBBSKv0Ew7a2tsKUSeA4Dtu2bcOJEyfMspdS//+xtLQUpgghpExUABJCXshUC0AASEtLw6xZs9CiRQt07NgRP/zwg9mNWaQeQEJIRVEBSAgplVgshlgsfm5uPFMhlUrRuXNnvPHGG4iMjMSBAweQmZmJIUOG4O7du8Lm/zn6Q8DlnZuQEEL0qAAkhJRKJBLBzs5OGDYpKSkpeP3112FpaQlHR0cMHDgQrVq1wpYtW6DRaIDCQ8X6KW2K4jiOn5xajzGGW7duYfXq1bh165ZJn2mrPwTs7OwsTBFCSJmoACSElEosFpv04V8AuHPnDr777js0atQI/fr1Q0BAANq0aYMNGzZAJBLB398f3t7e6NOnD/z8/PhCMCIiAn369EGnTp3g7++PY8eOQaVSISgoCMuXL4erqyuWLl2KmJgY4UuaDMYYpFIpHBwchClCCCkTFYCEkFLJZDKT7gFUKBR49uwZfv75ZyQkJCA0NBTbt2/H1KlTYWtri0OHDiExMRGhoaHw9/fHyZMnER8fj/T0dMyZMwfjx49HVFQUfHx8cPDgQcTGxsLPzw/NmjWDUqmEhYWFyR9ebdCggTBECCEvRAUgIaRUNjY2Jl0AMsb4awuXJCIiAkOHDoVKpcLGjRvBcRwuX76M1NRU5OTkoFWrVkhKSsL+/fvRokULpKSkoFWrVhg/fjzc3d2xe/duODo6CldrMiQSCerWrSsME0LIC1EBSAgplakXgGq1GikpKaVOAdOzZ0+8++67aNeuHd58800EBATgr7/+Qv369fHhhx/iiy++wIgRI3DgwAH06NEDzZo1Q3R0NMLCwuDl5YX79+9jy5YtyMnJEa7aJIjFYhr/Rwh5KSJmyiOcCSHV6tNPP0V8fDx+//13YcpkKBQKWFtbv/Rk1fn5+Zg3bx7mzp2Lxo0bIzk5GVu2bMGVK1fQvXt3DBo0CB06dHjp9Vem/v37o127dli9erUwRQghZaIeQEJIqRwcHBAREVHiGbSmwsbG5qWKs2fPnkGhUECtVsPa2hp16tQBALi4uGDlypUIDg7GsmXL0LFjx5daf1XIzs6GWEybcUJIxdGWgxBSqho1aoDjOISFhQlTrzSNRoPFixdj0qRJOHHiBEQiEeRyubCZycvOzoZEIhGGCSHkhagAJISUSn9yxe3bt4WpV5pMJsOGDRvQvHlzfPfdd3jvvfcglUqFzUxaeno6FAoF3N3dhSlCCHkhGgNICClVcnIyevXqBScnJwQHB/8nrznLcdwrV/wBwPbt27Fq1SqcP3+eikBCSIVRDyAhpFQuLi6YM2cOHj16hOXLlwvT/wmvYvGXlZWFrVu3om7dulT8EUJeChWAhJAyzZgxA82bN8f+/fsxf/58KJVKYRNSxT755BOkp6djwIABwhQhhJQLFYCEkBc6ePAgxowZgyNHjqBLly7YsmULEhMThc1IJTt9+jQGDhyIixcvAgAmTZokbEIIIeVCYwAJIeUWGhqKzz//HA8fPgQANG3aFH379kXXrl0hFovBGINOp4NOp+OXhfclxcrKlRQT3gtjjDGIRCKIxWJ+Cpeij8uTKyn+opywXUnPEeaEN31OLBZDoVAgJiYG0dHRuHPnDqKiogr/E8CcOXPg6+vLPyaEkIqgApAQUmE3btzApUuXEB4ejgcPHiA+Pl7YhFQSR0dHfPPNN+jdu7cwRQgh5UYFICGkUqhUKmi1Wr5nTqvV8j10+uWiN33b8rbTaDT8raCgABzH8csvipd2KygoEP4apRKLxZBKpeW6SSQSyGQyWFhYQCqVwsbGpthNLpeXOaGzWCxGzZo1UatWLZO+NjEh5NVBBSAhhBBCiJkpfZeTEEIIIYT8J1EBSAghhBBiZqgAJIQQQggxM1QAEkIIIYSYGSoACSGEEELMDBWAhBBCCCFmhgpAQgghhBAzQwUgIYQQQoiZoQKQEEIIIcTMUAFICCGEEGJmqAAkhBBCCDEzVAASQgghhJgZKgAJIYQQQswMFYCEEEIIIWaGCkBCCCGEEDNDBSAhhBBCiJmhApAQQgghxMz8Hwj4L4qznXeXAAAAAElFTkSuQmCC;" vertex="1" parent="1">
                    <mxGeometry y="10" width="640" height="251" as="geometry"/>
                </mxCell>
            </root>
        </mxGraphModel>
    </diagram>
</mxfile>